<?xml version="1.0" standalone="no"?>
<!DOCTYPE svg PUBLIC "-//W3C//DTD SVG 1.1//EN" "http://www.w3.org/Graphics/SVG/1.1/DTD/svg11.dtd" >
<svg xmlns="http://www.w3.org/2000/svg">
<metadata>Generated by IcoMoon</metadata>
<defs>
<font id="icomoon" horiz-adv-x="1024">
<font-face units-per-em="1024" ascent="960" descent="-64" />
<missing-glyph horiz-adv-x="1024" />
<glyph unicode="&#x20;" horiz-adv-x="512" d="" />
<glyph unicode="&#xe900;" glyph-name="add" d="M1024 371.2c0-15.36-10.24-25.6-25.6-25.6h-384v-384c0-15.36-10.24-25.6-25.6-25.6h-153.6c-15.36 0-25.6 15.36-25.6 25.6v384h-384c-15.36 0-25.6 15.36-25.6 25.6v153.6c0 15.36 10.24 25.6 25.6 25.6h384v384c0 15.36 10.24 25.6 25.6 25.6h153.6c15.36 0 25.6-10.24 25.6-25.6v-384h384c15.36 0 25.6-10.24 25.6-25.6v-153.6z" />
<glyph unicode="&#xe901;" glyph-name="article" d="M813.808 856.144l-103.735 103.695v0.161h-518.073v-1024h724.821v816.25l-103.013 103.894zM856.698-3.276h-604.572v903.15h458.23v-147.024h146.383v-756.127h-0.041zM315.616 657.733h477.63v-63.572h-477.63v63.572zM315.616 530.35h477.63v-63.572h-477.63v63.572zM315.616 402.966h477.63v-63.572h-477.63v63.572zM315.616 275.583h477.63v-63.572h-477.63v63.572zM315.616 148.197h477.63v-63.572h-477.63v63.572z" />
<glyph unicode="&#xe902;" glyph-name="audio" d="M518.481 845.989c0 14.258-8.71 18.147-19.339 8.659l-251.774-236.583c-10.629-9.488-31.005-17.265-45.263-17.265h-176.18c-14.258 0-25.924-11.666-25.924-25.924v-206.304c0-14.258 11.666-25.924 25.924-25.924h179.55c14.206 0 34.375-7.985 44.797-17.836l249.389-236.531c10.318-9.799 18.821-6.118 18.821 8.088v749.62zM683.669 816.591l-82.076-63.514c69.321-83.216 111.318-190.179 111.318-306.733 0-111.733-38.782-214.496-103.074-296.105l80.416-65.795c78.965 99.497 126.354 225.228 126.354 361.9 0 140.457-49.93 269.455-132.939 370.247v0 0 0zM847.716 943.36l-82.024-63.41c96.593-118.369 154.611-269.299 154.611-433.606 0-161.559-56.203-310.155-149.997-427.643l80.157-65.743c108.414 135.427 173.536 306.889 173.536 493.387 0 188.157-66.158 361.122-176.284 497.016v0 0 0z" />
<glyph unicode="&#xe903;" glyph-name="blog" d="M896 688.469c0-83.541-42.667-147.243-128-157.525v61.867c42.667 15.915 56.576 68.523 56.576 111.189h-56.576v128h128v-143.531zM725.333 688.469c0-83.541-42.667-147.243-128-157.525v61.867c42.667 15.915 61.909 68.523 61.909 111.189h-61.909v128h128v-143.531zM426.667 642.176c-42.667-16.085-56.576-66.176-56.576-108.843h56.576v-128h-128v141.056c0 83.499 42.667 147.285 128 157.611v-61.824zM256 642.176c-42.667-16.085-56.405-66.176-56.405-108.843h56.405v-128h-128v141.056c0 83.499 42.667 147.285 128 157.611v-61.824zM896 960h-768c-70.4 0-128-57.557-128-128v-469.333c0-70.4 57.6-128 128-128h85.333v-256l256 256h426.667c70.4 0 128 57.6 128 128v469.333c0 70.443-57.6 128-128 128v0 0z" />
<glyph unicode="&#xe904;" glyph-name="briefcase" d="M426.667 810.667h170.667c23.509 0 42.667-19.115 42.667-42.667v-42.667h-256v42.667c0 23.552 19.157 42.667 42.667 42.667zM938.667 725.333h-128v42.667h-85.333c0 70.571-57.429 128-128 128h-170.667c-70.571 0-128-57.429-128-128h-85.333v-42.667h-128c-46.933 0-85.333-38.4-85.333-85.333v-192l149.291-106.667h277.376v63.147h170.667v-63.147h277.333l149.333 106.667v192c0 46.933-38.4 85.333-85.333 85.333v0zM597.333 298.667v-42.667h-170.667v42.667h-296.021l-130.645 85.333v-298.667c0-46.933 38.4-85.333 85.333-85.333h853.333c46.933 0 85.333 38.4 85.333 85.333v298.667l-128-85.333h-298.667z" />
<glyph unicode="&#xe905;" glyph-name="browse" d="M501.808-44.8c-16.141 0-40.353 36.318-48.424 44.389-4.035 4.035-4.035 12.106 0 16.141 137.202 137.202 274.403 274.403 411.605 411.605 44.389 44.389 76.671 92.813 80.707 157.378 8.071 104.919-64.565 201.767-165.449 221.944-121.060 20.177-197.732-60.53-274.403-137.202-88.778-88.778-177.555-177.555-266.333-266.333-60.53-60.53-169.484-137.202-153.343-234.050 16.141-112.99 153.343-137.202 225.979-64.565 20.177 20.177 36.318 36.318 56.495 56.495 88.778 88.778 173.52 173.52 262.297 262.297 44.389 44.389 92.813 92.813 137.202 137.202 56.495 56.495-16.141 129.131-68.601 72.636-16.141-16.141-32.283-32.283-48.424-48.424-68.601-68.601-238.085-238.085-254.226-254.226-8.071-8.071-28.247-36.318-40.353-24.212s-28.247 28.247-40.353 40.353c-4.035 4.035-4.035 12.106 0 16.141 64.565 64.565 270.368 278.439 322.827 326.863 36.318 32.283 84.742 52.459 129.131 40.353 108.954-20.177 129.131-153.343 56.495-225.979-20.177-20.177-36.318-36.318-56.495-56.495-88.778-88.778-173.52-173.52-262.297-262.297-60.53-60.53-125.096-145.272-201.767-185.626-96.848-48.424-217.908-16.141-274.403 76.671-52.459 84.742-32.283 197.732 36.318 270.368 141.237 141.237 282.474 282.474 423.711 427.746 28.247 28.247 56.495 56.495 88.778 76.671 84.742 52.459 189.661 60.53 282.474 16.141 189.661-84.742 213.873-338.969 72.636-480.206-137.202-137.202-278.439-278.439-415.64-415.64-8.071-8.071-12.106-16.141-16.141-16.141v0z" />
<glyph unicode="&#xe906;" glyph-name="building" d="M224 960h-32v-1024h704v64h-640v896h576v-896h64v960h-672zM448 128h192v-128h-192v128zM704 192h64v-64h-64v64zM320 192h64v-64h-64v64zM704 320h64v-64h-64v64zM576 320h64v-64h-64v64zM448 320h64v-64h-64v64zM320 320h64v-64h-64v64zM704 448h64v-64h-64v64zM576 448h64v-64h-64v64zM448 448h64v-64h-64v64zM320 448h64v-64h-64v64zM704 576h64v-64h-64v64zM576 576h64v-64h-64v64zM448 576h64v-64h-64v64zM320 576h64v-64h-64v64zM704 704h64v-64h-64v64zM576 704h64v-64h-64v64zM448 704h64v-64h-64v64zM320 704h64v-64h-64v64zM704 832h64v-64h-64v64zM576 832h64v-64h-64v64zM448 832h64v-64h-64v64zM320 832h64v-64h-64v64z" />
<glyph unicode="&#xe907;" glyph-name="calendar" d="M81.92 693.76h860.16v-675.84h-860.16v675.84zM880.64 878.080v40.96c0 20.48-20.48 40.96-40.96 40.96h-40.96c-20.48 0-40.96-20.48-40.96-40.96v-40.96h-491.52v40.96c0 20.48-20.48 40.96-40.96 40.96h-61.44c-20.48 0-40.96-20.48-40.96-42.66v-39.26h-81.92c-20.48 0-40.96-20.48-40.96-40.96v-860.16c0-20.48 22.262-40.96 40.96-40.96h942.080c20.48 0 40.96 20.48 40.96 40.96v860.16c0 20.48-20.48 40.96-40.96 40.96h-102.4z" />
<glyph unicode="&#xe908;" glyph-name="carousel-left" d="M0 960v-1024h1024v1024h-1024zM634.9 857.6l143.345-143.345-265.884-266.274 266.040-266.079-143.462-143.502-409.659 409.58 409.62 409.62z" />
<glyph unicode="&#xe909;" glyph-name="carousel-right" d="M1024 960v-1024h-1024v1024h1024zM389.1 857.6l-143.345-143.345 265.884-266.274-266.040-266.079 143.462-143.502 409.659 409.58-409.62 409.62z" />
<glyph unicode="&#xe90a;" glyph-name="checkmark" d="M1017.408 680.378c8.79-8.79 8.79-21.974 0-30.764l-637.253-637.253c-8.79-8.79-21.974-8.79-30.764 0l-140.635 140.635c-8.79 8.79-21.974 21.974-30.764 30.764l-171.399 171.399c-8.79 8.79-8.79 21.974 0 30.764l140.635 140.635c8.79 8.79 21.974 8.79 30.764 0l171.399-171.399c8.79-8.79 21.974-8.79 30.764 0l461.459 470.249c8.79 8.79 21.974 8.79 30.764 0l145.030-145.030z" />
<glyph unicode="&#xe90b;" glyph-name="checkmark-circle" d="M807.1 573.912l-355.758-355.714c-5.308-5.35-14.085-5.35-19.435 0l-215.829 215.869c-5.308 5.308-5.308 14.043 0 19.435l89.19 89.148c5.35 5.35 14.085 5.35 19.393 0l107.329-107.287c5.308-5.308 14.043-5.308 19.393 0l246.422 246.338c5.308 5.35 14.085 5.392 19.518 0.084l89.692-88.521c5.392-5.308 5.392-14.001 0.084-19.351zM874.056 810.009c-199.988 199.987-524.107 199.987-724.096 0-199.947-199.946-199.947-524.105 0-724.050 199.988-199.946 524.107-199.946 724.096 0 199.905 199.946 199.947 524.105 0 724.050z" />
<glyph unicode="&#xe90c;" glyph-name="chevron-down" d="M1023.98 588.627l-179.178 179.178-332.836-332.348-332.592 332.544-179.373-179.325 511.966-512.063 512.015 512.015z" />
<glyph unicode="&#xe90d;" glyph-name="chevron-left" d="M704.015 960l179.178-179.178-332.348-332.836 332.544-332.592-179.325-179.373-512.063 511.966 512.015 512.015z" />
<glyph unicode="&#xe90e;" glyph-name="chevron-right" d="M371.373 960l-179.178-179.178 332.348-332.836-332.544-332.592 179.325-179.373 512.063 511.966-512.015 512.015z" />
<glyph unicode="&#xe90f;" glyph-name="chevron-up" d="M1023.98 255.985l-179.178-179.178-332.836 332.348-332.592-332.544-179.373 179.325 511.966 512.063 512.015-512.015z" />
<glyph unicode="&#xe910;" glyph-name="clear-all" d="M512 960c-285.377 0-512-230.82-512-512s230.82-512 512-512c285.377 0 512 230.82 512 512s-226.623 512-512 512v0zM512 825.705c75.541 0 142.689-20.984 201.443-58.754l-520.393-520.393c-37.77 58.754-58.754 125.902-58.754 201.443 0 209.836 167.869 377.705 377.705 377.705v0zM512 70.295c-75.541 0-142.689 20.984-201.443 58.754l520.393 520.393c37.77-58.754 58.754-125.902 58.754-201.443 0-209.836-167.869-377.705-377.705-377.705v0z" />
<glyph unicode="&#xe911;" glyph-name="close" d="M693.455 447.95l321.134 321.134c12.566 12.622 12.566 33.262 0 45.828l-135.436 135.493c-12.566 12.566-33.205 12.566-45.771 0l-321.248-321.191-321.419 321.362c-12.622 12.566-33.205 12.566-45.714 0l-135.493-135.55c-12.679-12.509-12.679-33.091 0-45.828l321.362-321.305-321.248-321.248c-12.566-12.509-12.566-33.148 0-45.771l135.436-135.493c12.566-12.509 33.319-12.509 45.771 0l321.305 321.248 321.021-321.078c12.566-12.566 33.205-12.566 45.771 0l135.55 135.55c12.452 12.509 12.452 33.148 0 45.828l-321.021 321.021z" />
<glyph unicode="&#xe912;" glyph-name="dots" d="M896.067 576c-70.709 0-128.067-57.357-128.067-128.022s57.357-127.978 128.067-127.978c70.709 0 127.978 57.313 127.978 127.978s-57.268 128.022-127.978 128.022zM384 447.978c0-70.665 57.357-127.978 128.022-127.978 70.621 0 127.978 57.313 127.978 127.978s-57.357 128.022-127.978 128.022c-70.665 0-128.022-57.357-128.022-128.022zM256 447.956c0-70.677-57.278-128-128-128s-128 57.323-128 128c0 70.677 57.278 128.044 128 128.044s128-57.367 128-128.044z" />
<glyph unicode="&#xe913;" glyph-name="download" d="M981.333 277.333h-42.667c-11.776 0-21.333-9.557-21.333-21.333v-149.333h-768v149.333c0 11.776-9.557 21.333-21.333 21.333h-42.667c-11.776 0-21.333-9.557-21.333-21.333v-298.667c0-11.776 9.557-21.333 21.333-21.333h896c11.776 0 21.333 9.557 21.333 21.333v298.667c0 11.776-9.557 21.333-21.333 21.333v0zM823.996 533.333h-162.645v384c0 23.467-19.2 42.667-42.667 42.667h-170.667c-23.467 0-42.667-19.2-42.667-42.667v-384h-162.645c-23.552 0-30.549-14.848-15.701-33.024l279.296-341.333c14.848-18.176 39.168-18.176 54.016 0l279.296 341.333c14.933 18.176 7.851 33.024-15.616 33.024v0z" />
<glyph unicode="&#xe914;" glyph-name="facebook" d="M0 960v-1024h546.949v396.545h-133.445v154.543h133.445v113.97c0 132.264 80.782 204.283 198.769 204.283 56.515 0 105.092-4.209 119.246-6.089v-138.222l-81.83-0.038c-64.169 0-76.593-30.49-76.593-75.234v-98.669h153.036l-19.928-154.543h-133.108v-396.545h317.459v1024h-1024z" />
<glyph unicode="&#xe915;" glyph-name="factory" d="M469.231 533.426h-170.63v426.574h170.63v-426.574zM255.944 746.713h-127.972v-213.287h127.972v213.287zM1023.777 21.537v-42.657h-1023.777v42.657c0 21.329 21.329 42.657 42.657 42.657v426.574h639.861v-127.972h298.602v-298.602c21.329 0 42.657-21.329 42.657-42.657v0zM213.287 405.454h-85.315v-85.315h85.315v85.315zM341.259 405.454h-85.315v-85.315h85.315v85.315zM469.231 405.454h-85.315v-85.315h85.315v85.315zM597.203 405.454h-85.315v-85.315h85.315v85.315zM767.833 320.139h-42.657v-42.657h42.657v42.657zM853.148 320.139h-42.657v-42.657h42.657v42.657zM938.463 320.139h-42.657v-42.657h42.657v42.657z" />
<glyph unicode="&#xe916;" glyph-name="google-plus" d="M0 960h1024v-1024h-1024v1024zM786.516 488.252v77.484h-55.346v-77.484h-79.698v-55.346h79.698v-79.698h55.346v79.698h77.484v55.346h-77.484zM383.597 492.679v-88.553c0 0 85.906 0.115 120.884 0.115-18.942-57.407-48.394-88.669-120.884-88.669-73.36 0-130.616 59.47-130.616 132.83s57.256 132.83 130.616 132.83c38.786 0 63.836-13.633 86.813-32.634 18.393 18.393 16.856 21.014 63.65 65.204-39.723 36.156-92.518 58.197-150.463 58.197-123.49 0-223.597-100.107-223.597-223.597 0-123.488 100.107-223.597 223.597-223.597 184.583 0 229.699 160.725 214.742 267.874h-214.742z" />
<glyph unicode="&#xe917;" glyph-name="move" d="M209.763 653.251v-157.886h189.463v-94.731h-189.463v-157.886l-207.506 207.506 207.506 202.996zM304.494 143.506h157.886v189.463h94.731v-189.463h157.886l-202.996-207.506-207.506 207.506zM719.508 752.494h-157.886v-189.463h-94.731v189.463h-157.886l202.996 207.506 207.506-207.506zM814.239 242.749v157.886h-189.463v94.731h189.463v157.886l207.506-207.506-207.506-202.996z" />
<glyph unicode="&#xe918;" glyph-name="line" d="M1024 960h-1024v-1024h1024v1024zM511.007 790.376c207.485 0 375.683-134.686 375.683-300.83 0-58.033-20.536-112.217-56.087-158.172-1.759-2.616-4.058-5.505-6.956-8.699l-0.22-0.239c-12.144-14.529-25.819-28.17-40.856-40.761-103.89-96.026-274.892-210.353-297.461-192.714-19.62 15.332 32.314 90.323-27.603 102.803-4.18 0.48-8.349 0.995-12.483 1.58l-0.079 0.005v0.005c-175.981 25.001-309.621 148.096-309.621 296.189-0.005 166.144 168.196 300.83 375.681 300.83v0 0zM293.034 393.59h75.769c10.778 0 19.593 8.818 19.593 19.596v1.635c0 10.778-8.815 19.593-19.593 19.593h-54.542v124.093c0 10.778-8.815 19.593-19.593 19.593h-1.635c-10.778 0-19.593-8.815-19.593-19.593v-145.318c0-10.78 8.815-19.598 19.593-19.598v0 0 0zM762.54 484.677v1.635c0 10.778-8.818 19.593-19.596 19.593h-54.539v31.024h54.539c10.778 0 19.596 8.815 19.596 19.593v1.635c0 10.778-8.818 19.593-19.596 19.593h-75.769c-10.778 0-19.593-8.815-19.593-19.593v-145.318c0-10.778 8.815-19.596 19.593-19.596h75.769c10.778 0 19.596 8.818 19.596 19.596v1.635c0 10.778-8.818 19.593-19.596 19.593h-54.539v31.024h54.539c10.778-0.005 19.596 8.812 19.596 19.587v0 0 0zM616.827 399.431l0.005 0.008c3.497 3.546 5.665 8.403 5.665 13.743v145.318c0 10.778-8.815 19.593-19.596 19.593h-1.635c-10.778 0-19.593-8.815-19.593-19.593v-85.303l-70.82 94.988c-3.383 5.907-9.753 9.908-17.012 9.908h-1.635c-10.778 0-19.596-8.815-19.596-19.593v-145.318c0-10.778 8.815-19.596 19.596-19.596h1.635c10.778 0 19.593 8.818 19.593 19.596v86.899l71.329-97.425c0.439-0.683 0.919-1.339 1.437-1.963l0.003-0.005c1.96-2.673 4.641-4.505 7.628-5.625 2.296-0.949 4.806-1.475 7.433-1.475h1.635c3.302 0 6.416 0.829 9.154 2.288 1.96 0.932 3.611 2.136 4.774 3.554v0 0 0zM423.803 393.59h1.635c10.778 0 19.593 8.818 19.593 19.596v145.318c0 10.778-8.815 19.593-19.593 19.593h-1.635c-10.778 0-19.596-8.815-19.596-19.593v-145.318c0-10.778 8.818-19.596 19.596-19.596v0 0z" />
<glyph unicode="&#xe919;" glyph-name="linkedin" d="M0 960v-1024h1023.972l0.028 1024h-1024zM151.723 576.114h152.036v-488.676h-152.036v488.676zM227.783 819.029c48.583 0 88.007-39.452 88.007-88.064 0-48.64-39.424-88.092-88.007-88.092-48.782 0-88.121 39.452-88.121 88.092 0 48.612 39.339 88.064 88.121 88.064v0zM399.019 576.114h145.579v-66.816h2.105c20.252 38.428 69.803 78.933 143.673 78.933 153.799 0 182.215-101.177 182.215-232.789v-268.004h-151.865v237.653c0 56.661-0.967 129.564-78.905 129.564-79.047 0-91.108-61.753-91.108-125.525v-241.692h-151.694v488.676z" />
<glyph unicode="&#xe91a;" glyph-name="list-view" d="M0 960h1024v-256h-1024v256zM0 576h1024v-256h-1024v256zM0 192h1024v-256h-1024v256z" />
<glyph unicode="&#xe91b;" glyph-name="location" d="M500.485 960c-171.381 0-308.485-137.105-308.485-308.485 0-47.13 21.423-107.113 21.423-107.113 81.406-209.941 278.494-599.833 278.494-599.833 4.285-4.285 4.285-8.569 8.569-8.569s8.569 4.285 8.569 8.569c0 0 197.088 389.891 278.494 599.833 0 0 21.423 59.983 21.423 107.113 0 167.096-137.105 308.485-308.485 308.485v0 0 0 0zM500.485 505.841c-77.121 0-141.389 64.268-141.389 141.389s64.268 141.389 141.389 141.389c77.121 0 141.389-64.268 141.389-141.389s-64.268-141.389-141.389-141.389v0 0 0 0z" />
<glyph unicode="&#xe91c;" glyph-name="mail" d="M512 256l-512 512h1024l-512-512zM512 170.667l-213.333 213.333-298.667-298.667h1024l-298.667 298.667-213.333-213.333zM768 426.667l256-256v512l-256-256zM0 682.667v-512l256 256-256 256z" />
<glyph unicode="&#xe91d;" glyph-name="message" d="M0-54.206l278.58 134.937-139.29 139.29-139.29-274.227zM1014.206 890.355l-56.587 56.587c-17.411 17.411-43.528 17.411-60.939 0l-60.939-60.939c-17.411 13.058-43.528 13.058-60.939 0l-21.764-21.764h-134.937l-252.463-252.463v-60.939l269.875 269.875h73.998l-535.396-535.396 178.465-178.465 600.689 600.689c17.411 17.411 17.411 43.528 0 60.939l60.939 60.939c13.058 17.411 13.058 43.528 0 60.939v0z" />
<glyph unicode="&#xe91e;" glyph-name="mixi" d="M51.402 960h-51.402v-1024h1024v1024h-972.598zM388.91 701.728c64.106 0 128.212-27.218 155.434-97.376 41.134 58.666 102.826 97.376 173.598 97.376 130.046 0 172.992-82.252 172.992-168.744v-338.734h-94.37v310.304c0 33.868-3.624 53.834-9.664 68.34-6.060 15.124-16.954 27.22-33.282 36.3-16.33 9.072-35.074 13.296-56.838 13.296-74.418 0-136.108-74.394-136.108-142.13v-286.11h-94.348v320.584c0 58.666-26.618 108.26-100.41 106.458-94.348-1.818-140.314-78.632-140.314-171.784v-255.258h-91.93v497.198h90.122v-88.912c27.22 50.808 84.058 99.192 165.118 99.192v0 0 0 0z" />
<glyph unicode="&#xe91f;" glyph-name="page" d="M813.808 856.144l-103.735 103.695v0.161h-518.073v-1024h724.821v816.25l-103.013 103.894zM856.698-3.276h-604.572v903.15h458.23v-147.024h146.383v-756.127h-0.041z" />
<glyph unicode="&#xe920;" glyph-name="pdf" d="M917.118 752.21l-103.073 103.873-103.754 103.756v0.161h-518.292v-1024.375h725.12v816.586h-0.002zM856.954 283.114h-604.834v616.762h458.41v25.659-172.764h146.424v-469.657zM292.631 213.945h63.687c29.743 0 54.601-2.002 71.73-22.537 10.849-13.129 12.528-27.98 12.528-38.587 0-24.016-10.007-44.27-26.259-54.838-15.131-9.727-36.026-9.727-46.834-9.727h-30.021v-80.298h-44.831v205.987zM336.302 121.077h17.733c14.29 0 40.87 0 40.87 31.424 0 27.98-23.736 27.98-36.266 27.98h-22.337v-59.404zM474.4 213.945l68.289-0.281c11.41 0 46.273-0.321 71.131-18.614 26.019-19.134 35.146-51.637 35.146-81.099 0-63.445-33.985-96.588-73.133-103.715-7.724-1.441-16.292-2.321-37.186-2.321h-64.246v206.029zM519.232 41.901c4.844-0.281 12.328-0.52 17.453-0.52 18.894 0 35.146 1.401 47.994 14.249 17.453 17.453 18.573 48.315 18.573 58.282 0 29.141-10.007 55.96-37.707 63.725-9.127 2.561-20.856 4.002-46.313 2.842v-138.578zM683.31 214.224h133.134v-33.105h-88.823v-50.877h82.859v-34.306h-82.859v-87.984h-44.27v206.267l-0.041 0.004z" />
<glyph unicode="&#xe921;" glyph-name="person" d="M979.478 130.226c-26.713 17.809-213.704 129.113-311.652 164.73v169.183c26.713 22.261 44.522 53.426 44.522 97.948v133.565c0 111.304-66.783 200.348-200.348 200.348s-200.348-89.043-200.348-200.348v-133.565c0-48.974 17.809-80.139 44.522-97.948v-169.183c-89.043-40.070-284.939-151.374-311.652-164.73-35.617-22.261-44.522-40.070-44.522-84.591v-106.852c0-13.357 8.904-22.261 22.261-22.261h979.478c13.357 0 22.261 8.904 22.261 22.261v106.852c0 44.522-8.904 62.33-44.522 84.591v0z" />
<glyph unicode="&#xe922;" glyph-name="phone" d="M746.667 960h-384c-59.733 0-106.667-46.933-106.667-106.667v-810.667c0-59.733 46.933-106.667 106.667-106.667h384c59.733 0 106.667 46.933 106.667 106.667v810.667c0 59.733-46.933 106.667-106.667 106.667v0 0zM554.667-34.133c-42.667 0-76.8 34.133-76.8 76.8s34.133 76.8 76.8 76.8c42.667 0 76.8-34.133 76.8-76.8s-34.133-76.8-76.8-76.8v0 0zM341.333 149.333v640h426.667v-640h-426.667z" />
<glyph unicode="&#xe923;" glyph-name="pinterest" d="M0 960v-1024h1024v1024h-1024zM325.408-28.768c-4.476 40.508-8.514 102.642 1.777 146.865 9.306 39.962 60.043 254.498 60.043 254.498s-15.32 30.671-15.32 76.016c0 71.194 41.269 124.346 92.644 124.346 43.684 0 64.788-32.794 64.788-72.125 0-43.93-27.972-109.602-42.407-170.468-12.067-50.967 25.557-92.521 75.817-92.521 90.998 0 160.947 95.951 160.947 234.456 0 122.592-88.083 208.299-213.86 208.299-145.68 0-231.187-109.264-231.187-222.189 0-44.007 16.951-91.198 38.101-116.847 4.184-5.068 4.799-9.514 3.553-14.682-3.892-16.174-12.528-50.952-14.22-58.066-2.238-9.375-7.422-11.359-17.12-6.845-63.95 29.764-103.934 123.254-103.934 198.347 0 161.508 117.347 309.834 338.298 309.834 177.613 0 315.641-126.561 315.641-295.706 0-176.451-111.256-318.463-265.681-318.463-51.883 0-100.658 26.949-117.355 58.789 0 0-25.672-97.759-31.894-121.708-11.559-44.476-42.761-100.22-63.634-134.229-24.981-39.933-33.217-22.432-34.993 12.398v0z" />
<glyph unicode="&#xe924;" glyph-name="print" d="M1002.667 661.333h-128c-12.8 0-21.333-8.533-21.333-21.333v-128c0-12.8-8.533-21.333-21.333-21.333h-640c-12.8 0-21.333 8.533-21.333 21.333v128c0 12.8-12.8 21.333-21.333 21.333h-128c-12.8 0-21.333-8.533-21.333-21.333v-597.333c0-12.8 8.533-21.333 21.333-21.333h157.867c12.8 0 25.6 8.533 25.6 21.333l17.067 85.333c4.267 12.8 12.8 21.333 25.6 21.333h524.8c12.8 0 25.6-8.533 25.6-21.333l17.067-85.333c4.267-12.8 12.8-21.333 25.6-21.333h157.867c12.8 0 21.333 12.8 21.333 21.333v597.333c4.267 12.8-4.267 21.333-17.067 21.333v0 0zM85.333 533.333c-25.6 0-42.667 17.067-42.667 42.667s17.067 42.667 42.667 42.667c25.6 0 42.667-17.067 42.667-42.667s-17.067-42.667-42.667-42.667zM769.11 85.333c-4.267 12.8-12.8 21.333-25.6 21.333h-426.667c-12.8 0-25.6-8.533-25.6-21.333l-34.133-128c-4.267-12.8 4.267-21.333 17.067-21.333h512c12.8 0 17.067 8.533 17.067 21.333l-34.133 128zM803.243 558.933c0-12.8-8.533-21.333-17.067-21.333h-554.667c-12.8 0-21.333 8.533-17.067 21.333l81.067 379.733c0 12.8 12.8 21.333 25.6 21.333h384c12.8 0 21.333-8.533 25.6-21.333l72.533-379.733z" />
<glyph unicode="&#xe925;" glyph-name="refresh" d="M991.603 569.726l-130.119-2.31c37.003-111.513 22.177-238.65-51.829-341.007-117.645-162.754-341.175-204.503-510.019-96.014l60.776 84.128c6.72 9.282 2.856 16.758-8.736 16.548l-272.923-4.704c-11.508-0.21-18.186-9.366-14.742-20.329l80.936-260.785c3.444-11.046 11.802-12.39 18.564-3.024l62.12 85.892 2.52-1.68c225.588-147.382 525.895-91.94 683.651 126.213 90.428 125.079 114.411 277.921 79.802 417.071v0 0zM137.512 325.406l-121.635-2.1c-35.701 139.99-11.97 294.091 79.088 420.053 157.756 218.154 458.064 273.595 683.651 126.213l2.52-1.68 62.12 85.892c6.762 9.366 15.12 7.98 18.564-3.024l80.894-260.743c3.444-11.004-3.192-20.203-14.742-20.371l-272.923-4.704c-11.592-0.21-15.456 7.266-8.736 16.548l60.776 84.128c-168.844 108.531-392.374 66.74-510.019-96.014-74.384-102.861-89.084-230.754-51.283-342.771l-8.274-1.428z" />
<glyph unicode="&#xe926;" glyph-name="search" d="M131.417 546.082c0 155.786 126.715 282.5 282.415 282.5 155.786 0 282.244-126.715 282.244-282.5 0-155.615-126.458-282.329-282.244-282.329-155.7 0-282.415 126.715-282.415 282.329zM1017.651 66.327l-256.166 256.166c41.469 64.725 66.179 141.336 66.179 223.589 0 228.292-185.626 413.918-413.832 413.918-228.121 0-413.832-185.626-413.832-413.918 0-228.121 185.712-413.661 413.832-413.661 82.424 0 159.12 24.454 223.675 66.179l256.166-256.251c8.55-8.465 22.573-8.465 31.037 0l92.941 92.941c8.55 8.465 8.55 22.487 0 31.037z" />
<glyph unicode="&#xe927;" glyph-name="share" d="M754.036 218.643l-297.891 176.072c4.655 18.534 4.655 32.434 4.655 50.968s-4.655 37.068-9.309 55.602l297.891 176.072c27.927-27.801 69.818-41.701 111.709-41.701 88.436 0 162.909 74.136 162.909 162.172s-74.473 162.172-162.909 162.172c-88.436 0-162.909-74.136-162.909-162.172 0-13.9 0-27.801 4.655-37.068l-293.236-171.439c-41.891 55.602-107.055 88.036-181.527 88.036-125.673 0-228.073-101.937-228.073-227.041s102.4-227.041 228.073-227.041c74.473 0 139.636 37.068 181.527 88.036l288.582-171.439c-4.655-13.9-4.655-27.801-4.655-41.701 0-88.036 74.473-162.172 162.909-162.172s162.909 74.136 162.909 162.172c0 88.036-69.818 162.172-158.255 162.172-41.891 0-79.127-18.534-107.055-41.701z" />
<glyph unicode="&#xe928;" glyph-name="slideshare" d="M0 960h1024v-1024h-1024v1024zM860.351 467.835c-2.947-2.108-5.885-4.106-8.816-6.097v295.97c0 41.088-30.9 74.292-68.932 74.292h-536.174c-38.024 0-68.924-33.204-68.924-74.292v-296.244c-3.056 2.077-6.128 4.169-9.208 6.371-22.844 15.94-37.82-5.76-23.816-26.496 27.264-33.4 79.096-74.88 158.568-107.512-84.080-286.433 205.228-331.925 200.801-185.064 0-2.727 0.165 83.359 0.282 144.408 7.602-1.787 14.184-3.534 20.383-5.063 0.125-60.625 0.266-141.994 0.266-139.345-4.42-146.86 285.085-101.368 200.808 185.064 79.48 32.632 131.32 74.112 158.561 107.512 14.020 20.728-0.948 42.428-23.8 26.496v0 0zM574.898 394.875c-35.391 1.787-48.502-13.432-50.249-36.888-8.519 6.050-17.217 13.252-26.143 21.535-1.481 1.395-2.9 2.617-4.263 3.762-7.758 8.182-20.571 12.578-40.469 11.591-47.436-1.473-134.251-10.885-235.361 42.091v287.154c0 52.020 13.252 68.336 60.868 68.336h474.546c45.116 0 61.040-19.388 61.040-68.336v-284.756c-103.092-55.719-191.835-46.002-239.969-44.489v0 0zM626.738 602.399c-50.876 0-92.168-38.58-92.168-86.196s41.292-86.196 92.168-86.196c50.868 0 92.144 38.58 92.144 86.196s-41.276 86.196-92.144 86.196v0 0zM412.285 430.007c50.886 0 92.136 38.591 92.136 86.196s-41.251 86.196-92.136 86.196c-50.886 0-92.136-38.591-92.136-86.196s41.251-86.196 92.136-86.196v0 0z" />
<glyph unicode="&#xe929;" glyph-name="spinner" d="M349.867 823.467c0 75.405 61.129 136.533 136.533 136.533s136.533-61.129 136.533-136.533c0-75.405-61.129-136.533-136.533-136.533s-136.533 61.129-136.533 136.533v0zM639.499 703.499c0 75.405 61.129 136.533 136.533 136.533s136.533-61.129 136.533-136.533c0-75.405-61.129-136.533-136.533-136.533s-136.533 61.129-136.533 136.533v0zM827.733 413.867c0 37.702 30.564 68.267 68.267 68.267s68.267-30.564 68.267-68.267c0-37.702-30.564-68.267-68.267-68.267s-68.267 30.564-68.267 68.267v0zM707.765 124.235c0 37.702 30.564 68.267 68.267 68.267s68.267-30.564 68.267-68.267c0-37.702-30.564-68.267-68.267-68.267s-68.267 30.564-68.267 68.267v0zM418.135 4.267v0c0 37.702 30.564 68.267 68.267 68.267s68.267-30.564 68.267-68.267v0c0-37.702-30.564-68.267-68.267-68.267s-68.267 30.564-68.267 68.267v0zM128.503 124.235v0c0 37.702 30.564 68.267 68.267 68.267s68.267-30.564 68.267-68.267v0c0-37.702-30.564-68.267-68.267-68.267s-68.267 30.564-68.267 68.267v0zM94.37 703.499v0c0 56.555 45.845 102.4 102.4 102.4s102.4-45.845 102.4-102.4v0c0-56.555-45.845-102.4-102.4-102.4s-102.4 45.845-102.4 102.4v0zM0 413.867c0 42.415 34.383 76.8 76.8 76.8s76.8-34.385 76.8-76.8c0-42.415-34.385-76.8-76.8-76.8s-76.8 34.385-76.8 76.8v0z" />
<glyph unicode="&#xe92a;" glyph-name="star-badge" d="M910.103 960h-830.092c-9.693 0-16.011-3.23-16.011-6.32v-823.629c0-6.32 19.101-12.781 19.101-12.781s395.943-175.568 399.033-178.798c6.32-3.23 15.871-3.23 22.333 0 6.32 3.23 402.265 175.568 402.265 175.568s15.871 6.32 15.871 12.781v826.86c3.37 3.090-2.948 6.32-12.501 6.32v0zM644.925 257.584l-165.878 76.688-166.018-76.688 22.331 182.030-124.443 134.136 178.8 35.254 89.471 159.557 89.329-159.557 178.94-35.254-124.723-134.136 22.193-182.030h-0.004z" />
<glyph unicode="&#xe92b;" glyph-name="tile-view" d="M0 960h448v-448h-448v448zM0 384h448v-448h-448v448zM576 960h448v-448h-448v448zM576 384h448v-448h-448v448z" />
<glyph unicode="&#xe92c;" glyph-name="tudou" d="M51.402 960h972.598v-1024h-1024v1024h51.402zM476.279 862.517c-189.203-15.303-350.93-160.256-376.408-353.366-32.506-246.421 144.017-457.669 366.772-475.409 176.519-14.057 289.674 58.78 366.747 150.982 67.326 80.565 108.684 198.484 90.072 327.652-17.326 120.462-104.091 236.842-205.924 295.542-57.464 33.13-124.621 56.12-205.664 56.082-11.577-0.007-23.44-0.5-35.596-1.483v0zM515.003 785.916c41.594-0.211 85.085-7.862 129.33-24.352 113.65-61.574 204.437-152.258 205.261-308.89 0.969-179.361-125.655-325.943-304.686-341.107-195.571-16.577-406.893 145.027-365.612 395.801 25.341 153.976 164.341 279.417 335.707 278.548h-0.001zM666.498 578.835c-55.020-0.417-110.197-34.824-106.581-102.389 50.659 33.020 142.783 39.306 212.33 12.837-2.517 60.332-54.063 89.943-105.748 89.552h-0.001zM354.618 578.158c-50.616-0.305-100.368-28.69-103.535-88.874 30.653 3.69 64.385 21.349 93.276 16.119-11.783-26.817-24.533-52.674-28.956-86.869-35.369 36.617-79.697-29.455-35.388-51.481-32.36-6.773-20.726-62.133 12.864-57.913 11.362 4.736 19.216 12.962 28.982 19.295 23.641-53.799 86.709 20.627 35.388 41.846 50.807 22.761-9.414 80.933-32.211 51.455 15.161 29.735 16.082 76.269 48.278 83.666 30.211 6.938 58.986-21.449 90.098-28.956 7.040 66.346-51.43 102.057-108.795 101.712l-0.001-0.001zM318.136 379.525c3.476 0.198 8.041-3.026 13.332-12.473-24.438-25.21-24.689 11.825-13.332 12.473v0 0 0z" />
<glyph unicode="&#xe92d;" glyph-name="twitter" d="M0-64h1024v1024h-1024v-1024zM817.376 604.64c0.32-6.752 0.448-13.536 0.448-20.384 0-208.224-158.464-448.32-448.288-448.32-88.96 0-171.808 26.112-241.536 70.816 12.352-1.472 24.896-2.208 37.6-2.208 73.824 0 141.824 25.184 195.744 67.424-68.928 1.28-127.072 46.848-147.136 109.408 9.632-1.856 19.648-2.816 29.792-2.816 14.368 0 28.608 1.92 41.824 5.504-72.064 14.496-125.824 78.144-125.824 154.496v2.016c32-11.84 44.992-18.912 70.816-19.744-42.272 28.288-70.656 76.512-70.656 131.168 0 28.896 7.776 55.936 21.344 79.232 77.696-95.328 193.824-158.080 324.736-164.64-2.688 11.52-4.064 23.52-4.064 35.904 0 87.040 70.528 157.568 157.568 157.568 45.28 0 86.272-19.136 115.008-49.76 35.872 7.040 69.568 20.16 100.032 38.24-11.776-36.8-36.768-67.68-69.28-87.168 31.872 3.808 62.24 12.288 90.496 24.8-21.12-31.584-47.872-59.328-78.624-81.536v0 0 0z" />
<glyph unicode="&#xe92e;" glyph-name="users" d="M991.424 157.696c-20.48 11.616-95.424 47.456-159.424 75.264v63.584c64 3.968 106.752 36.096 125.184 56.128 18.432 20-15.488 39.168-42.688 70.976-27.264 31.808-31.488 58.816-31.488 122.432 0 59.392-48.48 124.96-126.208 125.92-77.792-0.96-126.56-66.528-126.56-125.92 0-63.616-5.056-90.624-32.32-122.432-27.232-31.808-64.352-50.976-45.888-70.976 5.696-6.24 13.536-13.632 23.2-20.992 15.008-7.936 30.112-16.096 44.992-24.384 15.008-5.408 31.936-9.536 51.776-10.752v-11.2c15.232-8.704 29.44-16.896 41.728-23.904 45.216-25.696 54.272-51.52 54.272-92.416v-105.024h241.312c8.736 0 14.688 7.36 14.688 16.128v31.776c0 21.856-13.76 35.136-32.576 45.792zM704 217.344c-20.64 11.712-155.008 91.232-224 119.168v120.864c19.968 14.592 32 37.056 32 71.136v95.488c0 79.2-48 144-144 144s-144-64.8-144-144v-95.488c0-34.4 12.032-56.928 32-71.488v-120.512c-65.088-27.936-203.424-107.456-224-119.168-25.664-14.56-32-28.384-32-62.080v-75.264c0-8.8 7.2-16 16-16h704c8.8 0 16 7.2 16 16v75.264c0 33.696-6.432 47.52-32 62.080z" />
<glyph unicode="&#xe92f;" glyph-name="viadeo" d="M51.402 960h972.598v-1024h-1024v1024h51.402zM160 337.344c0-81.536 28.011-152.811 84.032-213.824s128.128-91.52 216.32-91.52c87.637 0 159.467 30.507 215.488 91.52 56.021 59.904 84.032 131.179 84.032 213.824 0 43.264-7.488 83.755-22.464 121.472-22.187-13.867-45.76-23.296-70.72-28.288 12.203-28.288 18.304-59.904 18.304-94.848 0-42.155-9.984-81.536-29.952-118.144-20.523-36.608-47.979-64.619-82.368-84.032-34.389-19.968-71.829-29.952-112.32-29.952-41.6 0-79.317 9.984-113.152 29.952-34.944 20.523-62.123 48.533-81.536 84.032-20.523 36.053-30.784 75.435-30.784 118.144 0 64.896 22.187 120.917 66.56 168.064 44.373 46.037 97.344 69.056 158.912 69.056 28.288 0 55.467-5.269 81.536-15.808 2.219 21.632 9.707 45.483 22.464 71.552-31.616 11.648-66.283 17.472-104 17.472-88.747 0-162.517-32.725-221.312-98.176-52.693-59.349-79.040-129.515-79.040-210.496v0 0zM392.96 126.848l46.592-3.328c41.045 26.069 75.573 56.299 103.584 90.688s48.117 68.779 60.32 103.168c12.203 34.389 20.8 69.333 25.792 104.832 3.328 22.741 4.992 44.928 4.992 66.56 0 11.648-0.555 22.741-1.664 33.28-2.773 30.507-6.24 57.824-10.4 81.952s-8.459 43.125-12.896 56.992l-7.488 20.8c-12.203 37.717-24.267 70.72-36.192 99.008s-20.661 46.869-26.208 55.744l-9.152 14.144c21.632-11.093 39.104-24.405 52.416-39.936 12.757-16.085 20.523-30.784 23.296-44.096 2.219-11.093 3.328-21.909 3.328-32.448v-5.824c-0.555-12.203-2.219-21.909-4.992-29.12l-4.16-10.816c2.219-32.171 3.605-63.232 4.16-93.184 0-28.843-1.387-57.131-4.16-84.864-4.992-55.467-13.451-101.781-25.376-138.944s-25.653-70.859-41.184-101.088c-15.531-30.229-31.477-53.941-47.84-71.136s-31.477-31.477-45.344-42.848c-13.867-11.371-25.237-19.275-34.112-23.712l-13.312-5.824zM621.76 656.832v0 0c-0.555-2.773-0.832-5.547-0.832-8.32 0-19.413 6.933-41.323 20.8-65.728l14.976 4.16c9.984 2.773 23.019 7.904 39.104 15.392s32.864 16.501 50.336 27.040c17.472 10.539 34.667 24.96 51.584 43.264s30.368 38.549 40.352 60.736l-1.664-8.32c-1.109-6.101-5.131-14.699-12.064-25.792s-16.085-23.435-27.456-37.024c-11.371-13.589-28.981-29.536-52.832-47.84s-51.861-36.331-84.032-54.080l90.688-44.096c18.304 0 36.885 5.547 55.744 16.64l12.48 9.152c8.32 5.547 18.443 15.808 30.368 30.784s21.216 31.616 27.872 49.92l9.152 37.44c3.328 13.867 4.992 30.229 4.992 49.088 0.555 13.867-0.277 29.675-2.496 47.424-4.437 39.936-18.027 75.712-40.768 107.328l-10.816-19.136c-7.211-13.312-19.275-27.456-36.192-42.432s-35.36-24.683-55.328-29.12l-17.472-4.992c-11.648-3.328-24.96-8.459-39.936-15.392s-25.792-14.283-32.448-22.048l-14.976-20.8c-10.539-13.312-16.917-31.061-19.136-53.248z" />
<glyph unicode="&#xe930;" glyph-name="video" d="M718.43 440.811l-322.999-189.962c-4.556-3.929-8.819-1.881-8.819 4.556v385.149c0 6.478 4.221 8.485 8.777 4.598l323.291-189.962c4.514-3.929 4.263-10.449-0.251-14.378zM512 824.163c-207.433 0-376.163-168.73-376.163-376.163s168.73-376.163 376.163-376.163c207.391 0 376.163 168.73 376.163 376.163s-168.772 376.163-376.163 376.163zM512-64c-282.373 0-512 229.669-512 512s229.627 512 512 512c282.331 0 512-229.669 512-512s-229.669-512-512-512z" />
<glyph unicode="&#xe931;" glyph-name="vk" d="M1024 960v-1024h-1024v1024h1024zM503.409 243.169h41.887c0 0 12.65 1.394 19.117 8.353 5.945 6.396 5.755 18.399 5.755 18.399s-0.819 56.205 25.262 64.481c25.721 8.158 58.741-54.319 93.739-78.345 26.466-18.175 46.578-14.197 46.578-14.197l93.588 1.308c0 0 48.954 3.020 25.741 41.512-1.9 3.144-13.523 28.472-69.587 80.512-58.687 54.467-50.82 45.655 19.868 139.87 43.049 57.377 60.257 92.404 54.879 107.405-5.123 14.293-36.789 10.517-36.789 10.517l-105.371-0.651c0 0-7.818 1.064-13.607-2.401-5.663-3.388-9.298-11.305-9.298-11.305s-16.684-44.397-38.918-82.16c-46.921-79.673-65.686-83.89-73.355-78.935-17.844 11.532-13.385 46.317-13.385 71.036 0 77.215 11.712 109.409-22.807 117.742-11.453 2.764-19.89 4.592-49.184 4.891-37.601 0.382-69.417-0.116-87.436-8.943-11.988-5.871-21.237-18.95-15.601-19.702 6.966-0.928 22.735-4.257 31.096-15.633 10.801-14.695 10.424-47.684 10.424-47.684s6.206-90.893-14.49-102.181c-14.202-7.744-33.687 8.064-75.519 80.349-21.43 37.026-37.615 77.958-37.615 77.958s-3.117 7.647-8.684 11.741c-6.752 4.96-16.186 6.532-16.186 6.532l-100.135-0.654c0 0-15.028-0.42-20.551-6.956-4.913-5.819-0.392-17.839-0.392-17.839s78.389-183.405 167.158-275.831c81.402-84.751 173.821-79.189 173.821-79.189z" />
<glyph unicode="&#xe932;" glyph-name="warning" d="M1018.412 94.925l-457.133 774.144c-11.060 18.432-29.492 29.491-47.925 29.491s-36.866-11.059-47.925-29.491l-457.133-774.144c-11.060-18.432-11.060-36.864 0-55.296s29.492-25.805 47.925-25.805h914.267c18.433 0 36.866 11.059 47.925 25.805 7.373 18.432 7.373 40.55 0 55.296v0zM152.071 124.416l361.283 619.315 361.283-619.315h-722.566zM568.652 257.126v-81.101c0-7.373-7.373-14.746-14.746-14.746h-81.104c-7.373 0-14.746 7.373-14.746 14.746v81.101c0 7.373 7.373 14.746 14.746 14.746h81.104c7.373 0 14.746-7.373 14.746-14.746v0zM476.488 566.784h73.731c11.060 0 18.433-7.373 18.433-18.432v-70.042c0-7.373 0-18.432-3.687-25.805l-25.806-129.024c0-7.373-7.373-14.746-14.746-14.746h-22.119c-7.373 0-14.746 7.373-18.433 14.746l-25.806 125.338c0 7.373-3.687 22.118-3.687 29.491v70.042c3.687 11.059 11.060 18.432 22.119 18.432v0z" />
<glyph unicode="&#xe933;" glyph-name="wechat" d="M1024-64v1024h-1024v-1024h1024zM685.408 578.116c-82.647-4.318-154.515-29.372-212.862-85.975-58.952-57.187-85.862-127.263-78.507-214.132-32.304 4-61.727 8.404-91.317 10.895-10.22 0.86-22.347-0.362-31.003-5.246-28.733-16.213-56.279-34.519-88.928-54.927 5.99 27.095 9.868 50.821 16.732 73.643 5.048 16.773 2.71 26.109-12.742 37.031-99.212 70.045-141.032 174.872-109.735 282.795 28.955 99.84 100.062 160.389 196.68 191.952 131.874 43.076 280.078-0.864 360.267-105.564 28.962-37.82 46.722-80.268 51.415-130.471v0 0 0 0zM305.036 611.744c0.761 19.739-16.343 37.523-36.659 38.117-20.801 0.611-37.908-15.285-38.516-35.782-0.614-20.774 15.275-37.42 36.226-37.953 20.77-0.526 38.182 15.391 38.95 35.618v0 0 0 0zM503.491 649.875c-20.391-0.375-37.622-17.743-37.26-37.56 0.372-20.541 17.275-36.611 38.243-36.359 21.023 0.253 36.966 16.493 36.768 37.468-0.174 20.589-17.002 36.83-37.751 36.451v0 0 0 0zM765.228 412.812c-16.166 0.113-29.901-13.121-30.56-29.454-0.7-17.466 12.875-31.809 30.16-31.853 16.719-0.055 29.928 12.588 30.536 29.225 0.649 17.507-12.933 31.962-30.136 32.082v0 0 0 0zM573.191 351.297c16.66-0.017 30.379 13.022 31.010 29.478 0.666 17.422-13.346 32.034-30.792 32.106-17.271 0.079-31.741-14.739-31.14-31.901 0.567-16.398 14.38-29.662 30.921-29.682v0 0 0 0zM871.086 62.874c-26.17 11.653-50.176 29.136-75.735 31.805-25.46 2.659-52.224-12.029-78.862-14.752-81.138-8.301-153.829 14.312-213.767 69.741-113.995 105.438-97.707 267.107 34.181 353.512 117.217 76.793 289.123 51.193 371.767-55.361 72.12-92.979 63.645-216.405-24.399-294.516-25.477-22.607-34.645-41.209-18.299-71.011 3.017-5.502 3.362-12.469 5.113-19.418v0 0 0 0z" />
<glyph unicode="&#xe934;" glyph-name="weibo" d="M0 960v-1024h1024v1024h-1024zM128 350.109c0 66.747 38.141 138.675 114.423 215.786 48.505 48.091 97.425 81.671 146.76 100.742 23.216 9.535 43.323 14.303 60.321 14.303 18.656 0 33.581-5.597 44.774-16.79 10.779-10.779 16.168-25.704 16.168-44.774 0-12.852-2.487-27.777-7.462-44.774-1.658-5.804-1.036-9.432 1.866-10.883s6.219-1.555 9.95-0.311l6.219 2.487c39.799 16.583 75.038 24.874 105.717 24.874s52.651-8.706 65.917-26.118c6.219-9.121 9.328-19.9 9.328-32.337 0-12.852-3.317-27.569-9.95-44.152-2.902-4.146-3.42-7.67-1.555-10.572s3.524-4.768 4.975-5.597c1.451-0.829 4.457-1.866 9.017-3.109 25.704-7.877 47.676-20.729 65.917-38.555s27.362-40.006 27.362-66.539c0-24.46-8.499-49.438-25.496-74.934s-40.11-48.816-69.338-69.96c-29.228-21.143-66.125-38.555-110.691-52.236s-91.932-20.521-142.096-20.521c-54.309 0-105.613 7.981-153.911 23.942s-88.408 39.799-120.33 71.514c-31.922 31.715-47.883 67.887-47.883 108.515v0 0 0zM205.733 320.259c4.146-41.872 30.057-75.245 77.733-100.12 38.141-20.314 81.464-30.471 129.969-30.471 12.023 0 24.46 0.622 37.312 1.866 63.43 6.219 116.288 26.326 158.575 60.321 38.141 31.093 57.211 65.296 57.211 102.607 0 3.731-0.207 7.462-0.622 11.194-4.146 41.457-30.057 74.623-77.733 99.498-38.555 20.314-82.086 30.471-130.591 30.471-12.023 0-24.253-0.622-36.69-1.866-41.872-4.146-79.806-14.717-113.801-31.715s-60.113-37.934-78.355-62.808c-15.754-21.972-23.631-44.567-23.631-67.783 0-3.731 0.207-7.462 0.622-11.194v0 0 0zM305.231 281.704c-5.389 12.023-8.084 24.253-8.084 36.69 0 14.51 3.731 29.020 11.194 43.53 12.852 26.533 34.41 46.432 64.674 59.699 18.656 8.291 37.519 12.437 56.589 12.437 11.194 0 22.387-1.451 33.581-4.353 31.508-8.291 54.102-25.289 67.783-50.993 7.048-13.266 10.572-26.947 10.572-41.043 0-13.266-3.109-26.74-9.328-40.421-12.852-29.435-35.446-50.993-67.783-64.674-18.241-7.877-36.483-11.815-54.724-11.815-14.096 0-27.984 2.28-41.665 6.84-30.264 9.535-51.2 27.569-62.808 54.102v0 0 0zM340.055 293.519c2.487-10.364 8.706-17.619 18.656-21.765 5.389-2.487 10.986-3.731 16.79-3.731 4.975 0 9.95 0.829 14.925 2.487 11.608 3.731 20.521 10.572 26.74 20.521 4.146 6.633 6.219 13.266 6.219 19.9 0 2.902-0.622 6.011-1.866 9.328-2.487 9.95-8.706 16.998-18.656 21.143-5.389 2.073-10.779 3.109-16.168 3.109-4.975 0-10.157-0.829-15.547-2.487-11.194-3.731-19.692-10.364-25.496-19.9-4.56-6.633-6.84-13.474-6.84-20.521 0-2.902 0.415-5.597 1.244-8.084v0 0 0zM427.738 342.646c1.244-3.731 3.938-6.426 8.084-8.084 2.073-0.829 4.042-1.244 5.908-1.244s3.835 0.415 5.908 1.244c4.56 1.658 7.877 4.353 9.95 8.084s2.487 7.462 1.244 11.194c-1.244 3.731-3.731 6.426-7.462 8.084-3.731 1.244-7.773 1.14-12.126-0.311s-7.566-4.042-9.639-7.773c-1.244-2.487-1.866-4.975-1.866-7.462v-3.731zM627.355 728.823c-0.415 2.073-0.622 4.146-0.622 6.219 0 5.389 1.658 10.572 4.975 15.547 4.146 6.633 10.157 10.986 18.034 13.059 14.096 2.902 28.191 4.353 42.287 4.353 21.143 0 41.872-3.109 62.186-9.328 34.41-11.194 64.052-30.471 88.926-57.833s41.043-59.077 48.505-95.145c2.902-14.51 4.353-28.606 4.353-42.287 0-21.143-3.317-41.457-9.95-60.943v-0.622c-2.487-7.462-7.255-13.059-14.303-16.79-4.56-2.073-9.121-3.109-13.681-3.109-2.902 0-6.011 0.415-9.328 1.244-7.877 2.487-13.474 7.255-16.79 14.303-2.073 4.56-3.109 8.913-3.109 13.059 0 3.317 0.415 6.426 1.244 9.328v0.622c4.56 14.096 6.84 28.606 6.84 43.53 0 9.535-0.829 19.485-2.487 29.849-5.389 25.704-16.998 48.298-34.824 67.783s-38.97 33.166-63.43 41.043c-14.51 4.146-29.020 6.219-43.53 6.219-9.95 0-20.107-1.036-30.471-3.109-2.073-0.415-4.146-0.622-6.219-0.622-5.804 0-11.194 1.658-16.168 4.975-6.633 4.56-10.779 10.779-12.437 18.656v0 0 0zM652.23 631.19c-0.415 2.073-0.622 4.146-0.622 6.219 0 4.146 1.244 8.499 3.731 13.059 3.731 5.804 9.121 9.535 16.168 11.194 7.877 1.658 15.547 2.487 23.009 2.487 27.777 0 51.615-10.986 71.514-32.959 12.023-13.681 19.9-29.228 23.631-46.64 1.244-7.048 1.866-13.888 1.866-20.521 0-9.95-1.658-19.9-4.975-29.849-2.073-6.633-6.219-11.401-12.437-14.303-3.731-2.073-7.462-3.109-11.194-3.109-2.902 0-5.597 0.415-8.084 1.244-6.633 2.073-11.608 6.219-14.925 12.437-1.658 3.731-2.487 7.462-2.487 11.194 0 2.902 0.415 5.597 1.244 8.084 1.658 5.804 2.487 11.194 2.487 16.168 0 11.608-4.353 21.972-13.059 31.093-9.121 10.779-20.314 16.168-33.581 16.168-4.146 0-8.291-0.415-12.437-1.244-2.073-0.415-3.938-0.622-5.597-0.622-4.56 0-8.913 1.451-13.059 4.353-5.804 3.731-9.535 8.913-11.194 15.547v0 0 0z" />
<glyph unicode="&#xe935;" glyph-name="world" d="M512 960c-282.483 0-512-229.517-512-512s229.517-512 512-512c282.483 0 512 229.517 512 512s-229.517 512-512 512v0 0zM790.069 103.724c-44.138-48.552-128-97.103-194.207-97.103-13.241 17.655 0 22.069 0 39.724-35.31 8.828-57.379 39.724-75.034 70.621-4.414 35.31 44.138 70.621 30.897 101.517-22.069-4.414-48.552 4.414-66.207 17.655-8.828 8.828-17.655 17.655-22.069 26.483-13.241 8.828-30.897 13.241-44.138 17.655-48.552 17.655-97.103 35.31-132.414 75.034 4.414 35.31-17.655 52.966-39.724 79.448-22.069 22.069-13.241 44.138-22.069 75.034-8.828 22.069-17.655 39.724-17.655 61.793s8.828 44.138 13.241 66.207c13.241 39.724 39.724 79.448 39.724 123.586 4.414 17.655-26.483 22.069-4.414 44.138s52.966 48.552 88.276 48.552c17.655 0 26.483-8.828 44.138-4.414s35.31 8.828 52.966 8.828 70.621 13.241 97.103 35.31l4.414-4.414h26.483l4.414 4.414c39.724-30.897 132.414-17.655 123.586-92.69v-4.414c-35.31-4.414-61.793 0-97.103 13.241v-39.724c52.966-30.897 119.172-52.966 141.241-110.345-22.069-26.483-48.552-13.241-79.448-13.241-8.828-8.828-13.241-17.655-8.828-30.897-22.069-13.241-44.138-26.483-52.966-52.966-4.414-13.241 0-35.31-4.414-48.552-8.828-17.655-26.483-30.897-35.31-48.552 0-26.483 13.241-44.138-13.241-66.207-35.31 0-39.724 26.483-66.207 35.31-22.069 8.828-52.966 0-75.034 4.414-35.31-13.241-30.897-97.103 17.655-83.862 22.069 8.828 22.069 22.069 52.966 17.655 22.069-13.241 8.828-39.724 8.828-57.379 13.241-8.828 35.31-4.414 44.138-22.069 0-13.241-4.414-35.31 4.414-44.138 17.655-26.483 66.207 17.655 79.448 22.069 39.724 13.241 83.862 8.828 123.586 8.828 30.897-22.069 79.448-13.241 105.931-44.138 17.655 4.414 30.897 13.241 48.552 0-17.655-52.966-61.793-92.69-101.517-132.414v0 0zM525.241 796.69c-13.241-4.414-22.069-22.069-30.897-30.897-8.828 0-17.655 0-26.483 8.828 0-17.655-22.069-30.897-26.483-48.552 30.897-22.069 79.448-22.069 114.759-26.483-4.414 35.31-30.897 61.793-30.897 97.103v0 0z" />
<glyph unicode="&#xe936;" glyph-name="xing" d="M0-64h1024v1024h-1024v-1024zM149.312 288l128 214.304-85.312 169.696h170.656l85.344-169.696-128-214.304h-170.688zM789.344 64h-170.688l-170.656 298.656 256 469.344h170.656l-256-469.344 170.688-298.656z" />
<glyph unicode="&#xe937;" glyph-name="youku" d="M51.402 960h972.598v-1024h-1024v1024h51.402zM470.137 736c-12.721-0.021-25.471-3.41-36.425-10.972-24.121-16.671-37.541-68.051-53.742-104.623-17.841-40.233-33.495-80.782-50.881-110.317-47.023 53.354-79.103 171.602-135.744 214.94-18.27 13.963-58.322 13.566-76.361 0-48.792-36.732 0.161-101.672 19.786-135.744 43.075-74.704 90.823-154.698 127.269-223.416-23.692-62.476-143.343-239.025 16.978-229.058 38.801 25.076 55.231 77.254 76.335 124.461 43.148 96.596 79.807 180.048 124.435 279.939 18.548 41.523 63.231 102.872 53.742 149.888-5.317 26.207-35.26 44.951-65.389 44.902h-0.001zM858.026 697.676c-23.184-0.232-46.565-11.060-56.679-32.032-16.733-19.090-34.652-36.982-53.742-53.716-9.171-11.559-19.553-21.909-31.096-31.096-13.422-13.963-24.312-30.388-42.431-39.624v110.291c-0.413 59.992-112.668 59.992-113.099 0v-313.921c4.903-22.401 15.084-39.529 39.572-42.38h33.956c23.277 4.044 36.515 18.132 39.572 42.38v67.886c0 23.532-4.405 63.258 11.31 39.598 23.039-22.545 55.504-46.801 84.863-73.501 28.181-25.698 55.148-67.174 84.811-73.527 60.739-13.023 87.532 45.278 65.052 87.645-23.74 44.788-92.115 73.45-121.6 113.125 19.87 45.472 127.889 73.407 118.766 152.696-3.596 31.319-31.272 46.456-59.253 46.176h-0.002z" />
<glyph unicode="&#xe938;" glyph-name="youtube" d="M0-64v1024h1024v-1024h-1024zM425.928 335.709l-0.038 233.644 224.689-117.229-224.651-116.415zM919.249 609.828c0 0-8.125 57.303-33.059 82.537-31.621 33.12-67.065 33.284-83.319 35.222-116.364 8.412-290.915 8.412-290.915 8.412h-0.361c0 0-174.547 0-290.915-8.412-16.255-1.938-51.686-2.103-83.318-35.222-24.932-25.234-33.046-82.537-33.046-82.537s-8.316-67.293-8.316-134.585v-63.086c0-67.291 8.316-134.583 8.316-134.583s8.113-57.304 33.046-82.538c31.632-33.12 73.183-32.072 91.69-35.544 66.525-6.379 282.725-8.353 282.725-8.353s174.731 0.263 291.095 8.675c16.254 1.938 51.698 2.103 83.319 35.222 24.934 25.234 33.059 82.538 33.059 82.538s8.304 67.292 8.304 134.583v63.086c0 67.292-8.304 134.585-8.304 134.585v0z" />
<glyph unicode="&#xe939;" glyph-name="carousel-dot" d="M874.056 810.009c-199.988 199.987-524.107 199.987-724.096 0-199.947-199.946-199.947-524.105 0-724.050 199.988-199.946 524.107-199.946 724.096 0 199.905 199.946 199.947 524.105 0 724.050z" />
<glyph unicode="&#xe93a;" glyph-name="info" horiz-adv-x="1025" d="M512.395 960c70.727 0 137.271-13.423 199.666-40.034 62.378-26.779 116.742-63.218 163.126-109.568 46.368-46.384 82.89-100.799 109.568-163.21 26.695-62.344 40.034-128.787 40.034-199.666 0-70.643-13.339-137.187-40.034-199.582-26.779-62.378-63.218-116.742-109.568-163.126-46.384-46.368-100.749-82.89-163.126-109.568-62.395-26.611-128.939-40.118-199.666-40.118s-137.238 13.423-199.666 40.118c-62.327 26.779-116.742 63.218-163.126 109.568-46.368 46.384-82.941 100.749-109.552 163.126-26.745 62.395-40.051 128.939-40.051 199.582 0 70.878 13.305 137.322 40.068 199.666 26.611 62.411 63.184 116.826 109.552 163.21 46.384 46.368 100.799 82.806 163.126 109.568 62.411 26.611 128.922 40.034 199.649 40.034zM512.395 31.373c57.371 0 111.433 10.752 162.135 32.44 50.601 21.689 94.885 51.391 132.601 89.073 37.682 37.783 67.384 81.916 89.073 132.601 21.689 50.719 32.524 104.831 32.524 162.051 0 57.371-10.836 111.551-32.524 162.152-21.689 50.836-51.391 94.869-89.073 132.735-37.699 37.632-81.916 67.384-132.601 89.073-50.719 21.672-104.764 32.44-162.135 32.44s-111.467-10.769-162.068-32.44c-50.752-21.689-94.953-51.441-132.651-89.073-37.716-37.867-67.384-81.899-89.073-132.735-21.689-50.618-32.524-104.781-32.524-162.152 0-57.287 10.836-111.349 32.524-162.051 21.689-50.601 51.357-94.885 89.073-132.601 37.699-37.682 81.916-67.384 132.651-89.073 50.601-21.705 104.697-32.44 162.068-32.44zM640.494 255.533h-64.058v256.197h-192.14v-64.125h64.058v-191.988h-64.058v-64.058h256.197v63.974zM448.354 655.738v-32.020c0-13.305 4.721-24.713 13.994-34.003 9.307-9.274 20.647-13.994 34.003-13.994h32.020c13.423 0 24.78 4.62 34.070 13.994 9.341 9.307 13.994 20.781 13.994 34.003v32.020c0 13.289-4.654 24.679-13.994 33.969-9.307 9.374-20.647 14.095-34.070 14.095h-32.020c-13.356 0-24.713-4.721-34.003-14.095-9.274-9.206-13.994-20.681-13.994-33.969z" />
<glyph unicode="&#xe93b;" glyph-name="lock" horiz-adv-x="827" d="M801.004 526.769h-52.697v190.306c0 121.423-113.94 242.924-234.22 242.924h-201.098c-120.281 0-234.22-121.502-234.22-242.924v-190.306h-52.697c-14.375 0-26.073-17.054-26.073-29.814v-544.532c0-12.761 11.697-16.423 26.073-16.423h774.932c14.375 0 26.073 3.663 26.073 16.423v544.532c0 12.761-11.697 29.814-26.073 29.814zM590.769 526.769h-354.462v190.306c0 55.138 24.734 85.386 78.769 85.386h196.923c54.036 0 78.769-30.247 78.769-85.386v-190.306z" />
<glyph unicode="&#xe93c;" glyph-name="Star-Filled" horiz-adv-x="1077" d="M538.275 960l-166.125-337.498-372.15-53.626 269.070-262.813-62.978-370.064 332.183 174.536 332.25-174.536-63.113 370.064 269.137 262.813-372.15 53.626z" />
<glyph unicode="&#xe93d;" glyph-name="Star-Open" horiz-adv-x="1077" d="M347.994 332.372l-190.347 185.032 262.813 37.814 117.815 238.657 117.748-238.657 262.813-37.814-190.28-185.032 44.139-261.803-234.419 124.072-234.486-124.072 44.206 261.803zM538.275 960l-166.125-337.498-372.15-53.626 269.070-262.813-62.978-370.064 332.183 174.536 332.25-174.536-63.113 370.064 269.137 262.813-372.15 53.626-166.125 337.498z" />
<glyph unicode="&#xe93e;" glyph-name="board" horiz-adv-x="1021" d="M845.358 210.343c0-31.9 0-73.371 0-73.371 0-3.19-3.19-9.57-6.38-9.57h-653.956c-3.19 0-6.38 6.38-6.38 9.57 0 0 0 41.47 0 73.371s6.38 44.66 28.71 57.421c19.14 9.57 143.551 82.941 204.162 108.461v108.461c-19.14 12.76-28.71 35.090-28.71 63.801 0 73.371 0 86.131 0 86.131 0 73.371 44.66 130.791 130.791 130.791s130.791-60.611 130.791-130.791v-86.131c0-31.9-9.57-51.040-28.71-63.801v-111.651c63.801-25.52 185.022-98.891 204.162-108.461s25.52-22.33 25.52-54.231zM181.832 306.044l3.19 3.19c66.991 38.28 121.221 66.991 159.502 86.131-19.14 9.57-38.28 15.95-54.231 22.33v76.561c28.71 9.57 28.71 22.33 28.71 44.66v51.040c0 51.040-25.52 92.511-86.131 92.511s-86.131-41.47-86.131-92.511c0 0 0 0 0-51.040 0-22.33 0-35.090 28.71-44.66v-76.561c-57.421-19.14-133.981-66.991-149.931-76.561s-25.52-19.14-25.52-38.28c0-22.33 0-51.040 0-51.040 0-3.19 3.19-6.38 6.38-6.38h127.601c6.38 22.33 19.14 44.66 47.85 60.611zM995.29 341.134c-12.76 6.38-89.321 57.421-149.931 76.561v76.561c28.71 9.57 28.71 22.33 28.71 44.66v51.040c0 51.040-25.52 92.511-86.131 92.511s-86.131-41.47-86.131-92.511c0 0 0 0 0-51.040 0-22.33 0-35.090 28.71-44.66v-76.561c-15.95-6.38-35.090-12.76-54.231-22.33 57.421-28.71 121.221-66.991 153.121-82.941l9.57-6.38c28.71-15.95 41.47-38.28 47.85-60.611h127.601c3.19 0 6.38 3.19 6.38 6.38 0 0 0 28.71 0 51.040s-9.57 28.71-25.52 38.28z" />
<glyph unicode="&#xe93f;" glyph-name="minus" d="M108.8 547.2h806.4v-201.6h-806.4v201.6z" />
<glyph unicode="&#xe940;" glyph-name="user" d="M956.8 35.2h-886.4v12.8c0 35.2 9.6 67.2 32 92.8 19.2 25.6 41.6 51.2 80 76.8 35.2 22.4 76.8 38.4 121.6 54.4 41.6 16 89.6 22.4 140.8 28.8v35.2c-35.2 19.2-60.8 51.2-86.4 92.8-22.4 38.4-35.2 86.4-35.2 140.8 0 38.4 0 73.6 3.2 108.8s9.6 67.2 19.2 89.6c16 32 35.2 51.2 60.8 64 32 16 70.4 22.4 112 22.4 51.2 0 89.6-9.6 112-25.6l9.6-6.4c19.2-12.8 41.6-28.8 51.2-54.4s19.2-57.6 19.2-89.6c0-16 0-32 0-48 0-19.2 3.2-38.4 3.2-60.8 0-48-12.8-96-35.2-140.8-25.6-41.6-54.4-73.6-86.4-92.8v-38.4c48-3.2 92.8-12.8 140.8-28.8 38.4-12.8 83.2-32 121.6-54.4 38.4-25.6 60.8-51.2 80-76.8 19.2-32 32-60.8 32-92.8v-9.6zM92.8 60.8h838.4c-3.2 22.4-9.6 44.8-25.6 67.2-16 25.6-38.4 44.8-73.6 70.4-38.4 22.4-76.8 38.4-115.2 54.4-48 16-96 25.6-144 28.8h-9.6v70.4l6.4 3.2c28.8 16 57.6 48 83.2 89.6 22.4 41.6 32 83.2 32 128 0 19.2 0 38.4-3.2 57.6 0 19.2 0 35.2 0 51.2 0 32-9.6 57.6-19.2 83.2-6.4 19.2-22.4 28.8-41.6 41.6l-9.6 6.4c-19.2 12.8-51.2 19.2-99.2 19.2s-80-12.8-99.2-22.4c-22.4-9.6-35.2-25.6-48-51.2-9.6-19.2-16-48-19.2-83.2s-3.2-70.4-3.2-108.8c0-35.2 6.4-83.2 32-128 22.4-41.6 51.2-70.4 83.2-89.6l6.4-3.2v-67.2h-9.6c-54.4-6.4-102.4-12.8-144-28.8s-83.2-32-115.2-54.4c-35.2-25.6-57.6-44.8-73.6-70.4-19.2-16-28.8-41.6-28.8-64z" />
<glyph unicode="&#xe941;" glyph-name="pencil" d="M91.999 238l552 552 210.001-210.001-552-552-270-59.999 59.999 270zM703.998 592l-54 54-420-420 54-54 420 420zM841.998 928c-17.999 0-30 0-48.001-5.999s-30-12-42-24.001l-59.999-59.999 210.001-210.001 59.999 59.999c12 12 17.999 24.001 24.001 42s5.999 30 5.999 48.001c0 42-12 78.001-42 108s-66 42-108 42z" />
<glyph unicode="&#xe942;" glyph-name="person1" d="M584.623 266.44c58.1-7.261 116.198-14.525 174.299-29.050s101.673-36.311 137.985-65.362c36.311-21.786 72.623-58.1 94.412-87.148 21.786-36.311 36.311-65.362 36.311-101.673h-1024c0 36.311 14.525 72.623 36.311 101.673 21.786 36.311 50.837 65.362 94.412 87.148 36.311 21.786 87.148 43.575 137.985 65.362s108.937 29.050 174.299 29.050v58.1c-43.575 21.786-72.623 58.1-101.673 108.937-36.311 50.837-50.837 101.673-50.837 159.773 0 43.575 0 87.148 0 130.723s7.261 72.623 21.786 101.673 36.311 50.837 65.362 72.623 72.623 29.050 123.462 29.050 94.412-7.261 123.462-29.050 50.837-43.575 65.362-72.623 21.786-65.362 21.786-101.673 0-79.887 0-130.723-14.525-108.937-43.575-159.773c-29.050-50.837-65.362-87.148-101.673-108.937v-58.1z" />
<glyph unicode="&#xe943;" glyph-name="report" d="M718.497 957.171h-418.652l-299.845-299.845v-424.309l299.845-294.188h424.309l299.843 299.845v418.652l-305.501 299.845zM509.171 148.155c-39.602 0-73.547 33.947-73.547 73.547s33.945 73.547 73.547 73.547c39.602 0 73.547-33.947 73.547-73.547s-33.945-73.547-73.547-73.547zM565.746 391.425h-113.149v339.448h113.149v-339.448z" />
<glyph unicode="&#xe944;" glyph-name="instagram" d="M512 867.8c136.8 0 153-0.6 206.8-3 50-2.2 77-10.6 95-17.6 23.8-9.2 41-20.4 58.8-38.2 18-18 29-35 38.4-58.8 7-18 15.4-45.2 17.6-95 2.4-54 3-70.2 3-206.8s-0.6-153-3-206.8c-2.2-50-10.6-77-17.6-95-9.2-23.8-20.4-41-38.2-58.8-18-18-35-29-58.8-38.4-18-7-45.2-15.4-95-17.6-54-2.4-70.2-3-206.8-3s-153 0.6-206.8 3c-50 2.2-77 10.6-95 17.6-23.8 9.2-41 20.4-58.8 38.2-18 18-29 35-38.4 58.8-7 18-15.4 45.2-17.6 95-2.4 54-3 70.2-3 206.8s0.6 153 3 206.8c2.2 50 10.6 77 17.6 95 9.2 23.8 20.4 41 38.2 58.8 18 18 35 29 58.8 38.4 18 7 45.2 15.4 95 17.6 53.8 2.4 70 3 206.8 3zM512 960c-139 0-156.4-0.6-211-3-54.4-2.4-91.8-11.2-124.2-23.8-33.8-13.2-62.4-30.6-90.8-59.2-28.6-28.4-46-57-59.2-90.6-12.6-32.6-21.4-69.8-23.8-124.2-2.4-54.8-3-72.2-3-211.2s0.6-156.4 3-211c2.4-54.4 11.2-91.8 23.8-124.2 13.2-33.8 30.6-62.4 59.2-90.8 28.4-28.4 57-46 90.6-59 32.6-12.6 69.8-21.4 124.2-23.8 54.6-2.4 72-3 211-3s156.4 0.6 211 3c54.4 2.4 91.8 11.2 124.2 23.8 33.6 13 62.2 30.6 90.6 59s46 57 59 90.6c12.6 32.6 21.4 69.8 23.8 124.2 2.4 54.6 3 72 3 211s-0.6 156.4-3 211c-2.4 54.4-11.2 91.8-23.8 124.2-12.6 34-30 62.6-58.6 91-28.4 28.4-57 46-90.6 59-32.6 12.6-69.8 21.4-124.2 23.8-54.8 2.6-72.2 3.2-211.2 3.2v0zM512 711c-145.2 0-263-117.8-263-263s117.8-263 263-263 263 117.8 263 263c0 145.2-117.8 263-263 263zM512 277.4c-94.2 0-170.6 76.4-170.6 170.6s76.4 170.6 170.6 170.6c94.2 0 170.6-76.4 170.6-170.6s-76.4-170.6-170.6-170.6zM846.8 721.4c0-33.91-27.49-61.4-61.4-61.4s-61.4 27.49-61.4 61.4c0 33.91 27.49 61.4 61.4 61.4s61.4-27.49 61.4-61.4z" />
<glyph unicode="&#xe945;" glyph-name="views" horiz-adv-x="1526" d="M761.134 911.989c0.768 0.011 1.667 0.011 2.566 0.011 83.418 0 163.864-12.687 239.525-36.235 73.935-22.286 143.311-54.222 207.016-94.351 62.912-40.727 120.239-89.706 170.273-145.362 50.358-55.275 93.713-116.907 128.774-183.584-35.046-76.313-78.401-137.938-128.716-193.125-50.097-55.752-107.43-104.733-170.542-145.511-63.495-40.092-132.886-72.021-206.49-94.259-76.226-23.156-156.933-35.568-240.54-35.568s-164.326 12.426-240.366 35.539c-73.785 22.257-143.166 54.186-206.867 94.351-62.97 40.65-120.306 89.648-170.273 145.362-50.387 55.266-93.771 116.898-128.786 183.592 35.053 76.308 78.43 137.936 128.716 193.125 50.097 55.752 107.43 104.733 170.542 145.507 63.495 40.063 132.886 71.997 206.471 94.24 75.617 23.482 155.657 36.174 238.626 36.271zM1130.743 662.455l-7.496 5.637-8.45 5.637c5.93-17.182 11.469-38.301 15.5-59.957 4.038-22.228 6.075-44.468 6.075-67.178 0-0.485-0.006-0.971-0.011-1.464 0.014-0.652 0.014-1.5 0.014-2.363 0-51.634-10.693-100.789-30-145.333-37.917-88.029-108.503-158.615-196.46-196.518-45.486-19.589-95.627-30.442-148.32-30.442s-102.819 10.86-148.32 30.444c-87.971 37.888-158.555 108.474-196.437 196.437-19.85 45.754-30.87 96.236-30.87 149.277 0 22.692 2.015 44.906 5.872 66.502 4.074 22.17 9.591 43.299 16.544 63.756l-11.266-7.873-7.496-5.637c-46.269-27.474-86.274-58.507-122.011-93.858-33.999-36.119-64.923-75.994-91.857-118.682 26.923-49.122 57.847-89.015 92.277-125.584 35.304-34.93 75.298-65.978 118.74-91.857 107.314-69.585 235.146-110.045 372.451-110.045s265.132 40.466 372.264 110.098c43.63 25.824 83.626 56.883 119.349 92.239 34.002 36.119 64.938 75.999 91.857 118.682-26.955 49.111-57.876 89.008-92.292 125.584-34.814 34.814-74.191 65.835-116.942 91.852zM761.134 583.657c-0.159 77.085-62.68 139.504-139.769 139.504-77.188 0-139.769-62.574-139.769-139.769s62.574-139.769 139.769-139.769c38.439 0 73.239 15.5 98.498 40.614 25.476 24.748 41.281 59.319 41.281 97.599 0 0.652-0.011 1.29-0.014 1.928z" />
<glyph unicode="&#xe946;" glyph-name="sliders" horiz-adv-x="1170" d="M512 886.857h658.286v-146.286h-658.286v-18.286c0-30.297-24.56-54.857-54.857-54.857h-182.857c-30.297 0-54.857 24.56-54.857 54.857v18.286h-219.429v146.286h219.429v18.286c0 30.297 24.56 54.857 54.857 54.857h182.857c30.297 0 54.857-24.56 54.857-54.857v-18.286zM950.857 539.429v-18.286h219.429v-146.286h-219.429v-18.286c0-30.297-24.56-54.857-54.857-54.857h-182.857c-30.297 0-54.857 24.56-54.857 54.857v18.286h-658.286v146.286h658.286v18.286c0 30.297 24.56 54.857 54.857 54.857h182.857c30.297 0 54.857-24.56 54.857-54.857zM512 173.714v-18.286h658.286v-146.286h-658.286v-18.286c0-30.297-24.56-54.857-54.857-54.857h-182.857c-30.297 0-54.857 24.56-54.857 54.857v18.286h-219.429v146.286h219.429v18.286c0 30.297 24.56 54.857 54.857 54.857h182.857c30.297 0 54.857-24.56 54.857-54.857zM292.571 740.571h146.286v146.286h-146.286v-146.286zM292.571 9.143h146.286v146.286h-146.286v-146.286zM731.429 374.857h146.286v146.286h-146.286v-146.286z" />

<glyph unicode="&#xe947;" glyph-name="telephone" d="M366.667,300c-33.334,33.333-33.334,66.666-66.667,66.666S233.333,333.333,200,300
		c-33.333-33.334-66.667-66.667-66.667-100c0-33.333,33.333-33.333,66.667-66.667S133.333,0,100,0S0,100,0,100
		c0,66.667,68.49,201.823,133.333,266.667S333.333,500,400,500c0,0,100-66.667,100-100C500,366.667,400,266.667,366.667,300z" />



</font>
</defs>
</svg>
